<?xml version="1.0" encoding="utf-8"?>
<!-- Generator: Adobe Illustrator 26.0.3, SVG Export Plug-In . SVG Version: 6.00 Build 0)  -->
<svg version="1.1" id="Слой_1" xmlns="http://www.w3.org/2000/svg" xmlns:xlink="http://www.w3.org/1999/xlink" x="0px" y="0px"
	 viewBox="0 0 24 24" style="enable-background:new 0 0 24 24;" xml:space="preserve">
<style type="text/css">
	.st0{fill:none;stroke:#000000;stroke-width:0.5;stroke-linecap:round;stroke-linejoin:round;}
	.st1{fill:none;stroke:#000000;stroke-width:0.25;stroke-miterlimit:10;}
	.st2{stroke:#000000;stroke-width:0.25;stroke-miterlimit:10;}
</style>
<circle class="st0" cx="12" cy="12" r="10"/>
<path class="st0" d="M20,17.9"/>
<path class="st0" d="M14.3,8"/>
<path class="st0" d="M13.1,2.1"/>
<path class="st0" d="M7.4,12"/>
<path class="st0" d="M2.8,16"/>
<path class="st0" d="M14.3,16"/>
<circle class="st1" cx="12" cy="12" r="11.2"/>
<g>
	<g>
		<path class="st2" d="M10.9,13.2c0-0.6-0.3-1-1.3-1.4l-0.3-0.1c-0.9-0.4-1.5-0.9-1.5-1.7c0-1,0.9-1.5,1.8-1.5c0.6,0,1,0.2,1.5,0.5
			l0,1.1h-0.3l-0.2-1.2L10.9,9v0.2c-0.4-0.3-0.8-0.5-1.3-0.5c-0.8,0-1.4,0.4-1.4,1.1c0,0.6,0.4,1,1.1,1.3l0.4,0.1
			c1.3,0.5,1.7,1,1.7,1.8c0,1-0.9,1.6-2,1.6c-0.7,0-1.3-0.2-1.7-0.5l0-1.2H8l0.2,1.3l-0.3-0.2V14c0.5,0.4,0.9,0.5,1.5,0.5
			C10.3,14.5,10.9,14.1,10.9,13.2z"/>
		<path class="st2" d="M12.3,8.9V8.6h1.2V9h-0.1L12.3,8.9z M13.5,14.3l1.1,0.1v0.3h-2.4v-0.3l1.1-0.1H13.5z M13.2,11.4
			c0-0.9,0-1.9,0-2.8h0.5c0,0.9,0,1.8,0,3v0.1c0,1,0,2,0,2.9h-0.5c0-0.9,0-1.9,0-2.8V11.4z M13.4,11.6h1.2c0.9,0,1.6-0.6,1.6-1.4
			c0-0.8-0.5-1.3-1.6-1.3h-1.2V8.6h1.2c1.3,0,2.1,0.6,2.1,1.6c0,0.9-0.7,1.5-1.7,1.6l0-0.1c0.7,0.1,0.9,0.3,1.1,1l0.6,1.7l-0.2-0.1
			l1,0.1v0.3c-0.1,0-0.3,0.1-0.6,0.1c-0.5,0-0.7-0.1-0.7-0.4l-0.5-1.5c-0.2-0.7-0.4-0.9-1.2-0.9h-1V11.6z"/>
	</g>
</g>
<polygon points="12,2.8 12.2,3.2 12.6,3.2 12.3,3.5 12.4,3.9 12,3.7 11.6,3.9 11.7,3.5 11.4,3.2 11.8,3.2 "/>
<polygon points="9.9,3.1 10.1,3.5 10.6,3.6 10.2,3.9 10.3,4.3 9.9,4.1 9.6,4.3 9.6,3.9 9.3,3.6 9.7,3.5 "/>
<polygon points="14,3.1 14.2,3.5 14.7,3.6 14.4,3.9 14.4,4.3 14,4.1 13.7,4.3 13.7,3.9 13.4,3.6 13.9,3.5 "/>
<g>
	<g>
		<path class="st2" d="M6.1,19.1c-0.2,0-0.3,0-0.5,0c-0.5-0.2-0.8-0.6-0.8-1c0-0.4,0.3-0.6,0.8-0.4C5.8,17.8,6,17.8,6.1,18
			c0,0.1,0,0.2,0,0.3c0,0-0.1,0-0.1,0c0-0.1,0-0.2,0-0.3c0,0,0.1,0,0.1,0.1c0,0,0,0,0,0.1c-0.1-0.1-0.2-0.2-0.4-0.3
			c-0.4-0.1-0.6,0-0.6,0.4c0,0.4,0.2,0.7,0.6,0.9C5.8,19.1,5.9,19.1,6.1,19.1c-0.1-0.1-0.1,0-0.1,0c0,0,0-0.1,0-0.1
			c0-0.2,0-0.3,0-0.5c0,0,0.1,0,0.1,0C6.1,18.7,6.1,18.9,6.1,19.1C6.1,19.1,6.1,19.1,6.1,19.1z M5.7,18.5
			C5.7,18.5,5.7,18.5,5.7,18.5c0.2,0,0.4,0.1,0.6,0.1c0,0,0,0,0,0.1c-0.1,0-0.1,0-0.2-0.1c0,0,0,0,0,0C5.9,18.6,5.8,18.6,5.7,18.5z"
			/>
		<path class="st2" d="M6.4,18C6.4,18,6.4,18,6.4,18c0.1,0,0.2,0,0.3,0c0,0,0,0.1,0,0.1c0,0,0,0,0,0C6.6,18.1,6.5,18.1,6.4,18z
			 M6.7,19.4C6.7,19.4,6.7,19.4,6.7,19.4c-0.1,0-0.2,0-0.3,0c0,0,0,0,0-0.1C6.5,19.3,6.6,19.3,6.7,19.4C6.7,19.3,6.7,19.3,6.7,19.4z
			 M6.7,18.7c0-0.2,0-0.4,0-0.6c0,0,0.1,0,0.1,0c0,0.2,0,0.4,0,0.6c0,0,0,0,0,0c0,0.3,0,0.5,0,0.7c0,0-0.1,0-0.1,0
			c0-0.2,0-0.4,0-0.6C6.7,18.8,6.7,18.7,6.7,18.7z M7.4,18.3C7.5,18.3,7.5,18.3,7.4,18.3c-0.2,0-0.4,0-0.7-0.1c0,0,0,0,0-0.1
			c0.3,0.1,0.5,0.2,0.8,0.2c0,0.1,0,0.2,0,0.3c0,0-0.1,0-0.1,0C7.5,18.5,7.5,18.4,7.4,18.3z M7.3,18.9c-0.2,0-0.3-0.1-0.5-0.1
			c0,0,0,0,0-0.1C6.9,18.8,7.1,18.8,7.3,18.9C7.3,18.9,7.3,18.9,7.3,18.9z M7.6,19.3c0,0.1,0,0.2,0,0.3c-0.3-0.1-0.6-0.1-0.9-0.2
			c0,0,0,0,0-0.1c0.3,0.1,0.5,0.1,0.8,0.2c0,0,0,0-0.1,0.1C7.5,19.5,7.5,19.4,7.6,19.3C7.6,19.3,7.6,19.3,7.6,19.3z M7.2,18.9
			c0-0.1,0-0.1,0-0.2c0,0,0,0,0.1,0c0,0.1,0,0.3,0,0.4c0,0,0,0-0.1,0C7.2,19,7.2,19,7.2,18.9C7.2,18.9,7.2,18.9,7.2,18.9z"/>
		<path class="st2" d="M7.8,18.4c0.1,0,0.2,0,0.3,0.1c0,0,0,0.1,0,0.1c0,0,0,0,0,0C8,18.5,7.9,18.4,7.8,18.4
			C7.8,18.4,7.8,18.4,7.8,18.4z M7.8,19.6c0.1,0,0.2,0,0.2,0c0,0,0,0,0,0c0.1,0,0.2,0,0.2,0.1c0,0,0,0,0,0.1
			C8.2,19.8,8,19.7,7.8,19.6C7.8,19.7,7.8,19.7,7.8,19.6z M8,18.4C8.1,18.4,8.1,18.4,8,18.4c0.1,0.2,0.1,0.4,0.1,0.6
			c0,0.3,0,0.5,0,0.8c0,0-0.1,0-0.1,0C8,19.3,8,18.9,8,18.4z M8,18.4c0,0,0.1,0,0.1,0c0.2,0.5,0.4,0.9,0.6,1.4c0,0,0,0,0,0
			c0.2-0.4,0.4-0.8,0.6-1.2c0,0,0.1,0,0.1,0c-0.2,0.4-0.4,0.8-0.7,1.3c0,0,0,0-0.1,0C8.5,19.4,8.3,18.9,8,18.4z M9.1,19.9
			c0.1,0,0.2,0,0.3,0c0,0,0,0,0,0c0.1,0,0.2,0,0.3,0.1c0,0,0,0,0,0.1C9.5,20,9.3,20,9.1,19.9C9.1,19.9,9.1,19.9,9.1,19.9z M9.4,19.4
			c0-0.2,0-0.5,0-0.7c0,0,0.1,0,0.1,0c0,0.2,0,0.4,0,0.6c0,0,0,0.1,0,0.1c0,0.2,0,0.4,0,0.6c0,0-0.1,0-0.1,0
			C9.4,19.8,9.3,19.6,9.4,19.4z M9.4,18.6c0.1,0,0.2,0,0.3,0c0,0,0,0,0,0.1C9.6,18.7,9.5,18.7,9.4,18.6C9.4,18.7,9.4,18.7,9.4,18.6
			C9.4,18.7,9.4,18.7,9.4,18.6z"/>
		<path class="st2" d="M10,18.8C10,18.7,10,18.7,10,18.8c0.1,0,0.2,0,0.3,0c0,0,0,0.1,0,0.1c0,0,0,0,0,0
			C10.2,18.8,10.1,18.8,10,18.8z M10.3,20C10.3,20,10.3,20.1,10.3,20c-0.1,0.1-0.2,0.1-0.3,0c0,0,0,0,0-0.1C10.1,20,10.2,20,10.3,20
			C10.3,20,10.3,20,10.3,20z M10.2,19.3c0-0.2,0-0.4,0-0.6c0,0,0.1,0,0.1,0c0,0.2,0,0.4,0,0.6c0,0,0,0,0,0c0,0.3,0,0.5,0,0.7
			c0,0-0.1,0-0.1,0c0-0.2,0-0.4,0-0.6C10.2,19.4,10.2,19.4,10.2,19.3z M10.3,19.3c0.1,0,0.1,0,0.2,0c0.3,0,0.5-0.1,0.5-0.3
			c0-0.2-0.1-0.3-0.4-0.3c-0.1,0-0.2,0-0.3,0c0,0,0,0,0-0.1c0.1,0,0.2,0,0.3,0c0.3,0,0.5,0.2,0.5,0.3c0,0.2-0.1,0.3-0.5,0.3
			c0,0,0,0,0,0c0.4,0,0.5,0.2,0.5,0.4c0,0.2-0.2,0.4-0.6,0.3c-0.1,0-0.2,0-0.3,0c0,0,0,0,0-0.1c0.1,0,0.2,0,0.3,0
			c0.3,0,0.5-0.1,0.5-0.3c0-0.2-0.2-0.3-0.5-0.3C10.5,19.4,10.4,19.4,10.3,19.3C10.3,19.4,10.3,19.4,10.3,19.3z"/>
		<path class="st2" d="M11.4,18.8C11.4,18.8,11.4,18.8,11.4,18.8c0.1-0.1,0.2-0.1,0.3-0.1c0,0,0,0.1,0,0.1c0,0,0,0,0,0
			C11.6,18.9,11.5,18.9,11.4,18.8z M11.7,20.1C11.7,20.1,11.7,20.1,11.7,20.1c-0.1,0.1-0.2,0.1-0.3,0.1c0,0,0,0,0-0.1
			C11.5,20.1,11.6,20.1,11.7,20.1C11.7,20.1,11.7,20.1,11.7,20.1z M11.7,19.4c0-0.2,0-0.4,0-0.6c0,0,0.1,0,0.1,0c0,0.2,0,0.4,0,0.6
			c0,0,0,0,0,0c0,0.3,0,0.5,0,0.7c0,0-0.1,0-0.1,0c0-0.2,0-0.4,0-0.6C11.7,19.5,11.7,19.5,11.7,19.4z M12.5,18.8
			C12.5,18.8,12.5,18.8,12.5,18.8c-0.2,0.1-0.5,0.1-0.7,0.1c0,0,0,0,0-0.1c0.3,0,0.6,0,0.8,0c0,0.1,0,0.2,0,0.3c0,0-0.1,0-0.1,0
			C12.5,19,12.5,18.9,12.5,18.8z M12.3,19.5c-0.2,0-0.4,0-0.5,0c0,0,0,0,0-0.1C11.9,19.4,12.1,19.4,12.3,19.5
			C12.3,19.4,12.3,19.5,12.3,19.5z M12.7,19.8c0,0.1,0,0.2,0,0.3c-0.3,0-0.6,0-0.9,0c0,0,0,0,0-0.1c0.3,0,0.5,0,0.8,0
			c0,0,0,0-0.1,0.1C12.5,20,12.5,19.9,12.7,19.8C12.6,19.8,12.6,19.8,12.7,19.8z M12.2,19.4c0-0.1,0-0.1,0-0.2c0,0,0,0,0.1,0
			c0,0.1,0,0.3,0,0.4c0,0,0,0-0.1,0C12.3,19.6,12.2,19.5,12.2,19.4C12.2,19.5,12.2,19.4,12.2,19.4z"/>
		<path class="st2" d="M12.9,18.8C12.9,18.8,12.9,18.8,12.9,18.8c0.2-0.1,0.4-0.1,0.6-0.1c0,0,0,0,0,0.1c-0.1,0-0.2,0-0.3,0
			c0,0,0,0,0,0C13.1,18.8,13,18.8,12.9,18.8z M13.2,20C13.2,20,13.2,20.1,13.2,20c-0.1,0.1-0.2,0.1-0.3,0.1c0,0,0,0,0-0.1
			C13,20,13.1,20,13.2,20C13.2,20,13.2,20,13.2,20z M13.1,18.8c0,0,0.1,0,0.1,0c0,0.2,0,0.4,0,0.7c0,0,0,0.1,0,0.1
			c0,0.2,0,0.4,0,0.6c0,0-0.1,0-0.1,0c0-0.2,0-0.4,0-0.6c0,0,0-0.1,0-0.1C13.1,19.2,13.1,19,13.1,18.8z M14,19.7c0,0.1,0,0.2,0,0.3
			c-0.3,0-0.6,0.1-0.8,0.1c0,0,0,0,0-0.1c0.3,0,0.5,0,0.8-0.1c0,0,0,0-0.1,0.1C13.9,19.9,13.9,19.8,14,19.7C14,19.7,14,19.7,14,19.7
			z"/>
		<path class="st2" d="M14.3,18.7C14.3,18.7,14.3,18.7,14.3,18.7c0,0,0,0.2,0,0.3c0,0-0.1,0-0.1,0C14.2,18.9,14.2,18.8,14.3,18.7
			c0.4-0.1,0.8-0.2,1.2-0.3c0,0.1,0,0.2,0,0.3c0,0-0.1,0-0.1,0c0-0.1,0-0.2-0.1-0.3c0,0,0,0,0.1,0.1C15,18.6,14.6,18.7,14.3,18.7z
			 M14.9,19.8c0.1,0,0.2,0,0.3,0c0,0,0,0,0,0.1c-0.2,0-0.4,0.1-0.7,0.1c0,0,0,0,0-0.1C14.6,19.9,14.7,19.8,14.9,19.8
			C14.8,19.8,14.8,19.8,14.9,19.8z M14.8,19.2c0-0.2,0-0.4,0-0.6c0,0,0.1,0,0.1,0c0,0.2,0,0.4,0,0.6c0,0,0,0.1,0,0.1
			c0,0.2,0,0.4,0,0.6c0,0-0.1,0-0.1,0c0-0.2,0-0.4,0-0.6C14.8,19.3,14.8,19.2,14.8,19.2z"/>
		<path class="st2" d="M17.1,18.7c0,0.4-0.3,0.8-0.7,0.9c-0.4,0.1-0.7-0.1-0.7-0.5c0-0.4,0.3-0.8,0.7-0.9
			C16.8,18.1,17.1,18.3,17.1,18.7z M16.4,19.5c0.4-0.1,0.5-0.4,0.5-0.8c0-0.3-0.2-0.6-0.5-0.5c-0.4,0.1-0.6,0.4-0.6,0.8
			C15.8,19.4,16,19.6,16.4,19.5z"/>
		<path class="st2" d="M17.5,18c0,0,0.1,0,0.1,0c-0.1,0-0.2,0-0.3,0.1c0,0,0,0,0-0.1c0.1,0,0.2-0.1,0.3-0.1c0.3,0.3,0.7,0.6,1,0.9
			c0,0,0,0.1,0,0.1c0,0,0,0-0.1,0C18.2,18.6,17.8,18.3,17.5,18z M17.3,19.3c0.1,0,0.2-0.1,0.2-0.1c0,0,0,0,0,0c0.1,0,0.2,0,0.3-0.1
			c0,0,0,0,0,0.1C17.7,19.2,17.5,19.3,17.3,19.3C17.3,19.3,17.3,19.3,17.3,19.3z M17.5,17.9C17.5,17.9,17.6,17.9,17.5,17.9
			c0.1,0.5,0.1,0.9,0.1,1.3c0,0-0.1,0-0.1,0C17.5,18.8,17.5,18.4,17.5,17.9z M18.3,17.6c0.2-0.1,0.4-0.1,0.5-0.2c0,0,0,0,0,0.1
			c-0.1,0-0.1,0.1-0.2,0.1c0,0,0,0,0,0C18.4,17.6,18.4,17.7,18.3,17.6C18.3,17.7,18.3,17.7,18.3,17.6z M18.5,17.5
			C18.5,17.5,18.6,17.5,18.5,17.5c0.1,0.4,0.1,0.9,0.1,1.3c0,0-0.1,0-0.1,0C18.5,18.4,18.5,18,18.5,17.5z"/>
	</g>
</g>
</svg>
