<?xml version="1.0" encoding="utf-8"?>
<!-- Generator: Adobe Illustrator 26.0.3, SVG Export Plug-In . SVG Version: 6.00 Build 0)  -->
<svg version="1.1" id="Capa_1" xmlns="http://www.w3.org/2000/svg" xmlns:xlink="http://www.w3.org/1999/xlink" x="0px" y="0px"
	 viewBox="0 0 57 57" style="enable-background:new 0 0 57 57;" xml:space="preserve">
<style type="text/css">
	.st0{stroke:#000000;stroke-width:1.55;stroke-miterlimit:10;}
</style>
<g>
	<path class="st0" d="M55.8,40.8c-0.3-0.7-0.9-1.1-1.6-1.1h-1c-0.4-12.6-8.9-22.9-19.9-25.3c0-0.2,0-0.3,0-0.5
		c0-2.8-2.1-5.2-4.7-5.2s-4.7,2.3-4.7,5.2c0,0.2,0,0.3,0,0.5C12.7,16.8,4.3,27.2,3.8,39.7H3.8c-0.7,0-1.3,0.4-1.6,1.1
		c-0.3,0.7-0.3,1.5,0.1,2.1l2.1,3.3C5.6,47.9,7.5,49,9.5,49h38.8c2,0,4-1.1,5.1-2.9l2.1-3.3C56.1,42.3,56.1,41.5,55.8,40.8z
		 M25.6,14.1c0-0.1,0-0.1,0-0.2c0-1.7,1.3-3.1,2.8-3.1c1.6,0,2.8,1.4,2.8,3.1c0,0.1,0,0.1,0,0.2c0,0-0.1,0-0.1,0
		c-0.3,0-0.7-0.1-1-0.1c-0.1,0-0.2,0-0.4,0c-0.5,0-0.9,0-1.4,0c-0.5,0-0.9,0-1.4,0c-0.1,0-0.2,0-0.4,0c-0.3,0-0.7,0.1-1,0.1
		C25.7,14.1,25.7,14.1,25.6,14.1z M25.1,16.3c0.5-0.1,1-0.1,1.5-0.2c0.1,0,0.2,0,0.3,0c1-0.1,2.1-0.1,3.1,0c0.1,0,0.2,0,0.3,0
		c0.5,0,1,0.1,1.5,0.2C42.5,18,50.8,27.8,51.2,39.7H5.7C6.2,27.8,14.4,18,25.1,16.3z M52,44.9c-0.8,1.3-2.2,2-3.6,2H9.5
		c-1.4,0-2.8-0.8-3.6-2l-2.1-3.1h49.3H54L52,44.9z"/>
	<path class="st0" d="M28.5,19.1c-1.6,0-3.1,0.2-4.6,0.6c-0.5,0.1-0.8,0.7-0.7,1.2c0.1,0.5,0.5,0.8,0.9,0.8c0.1,0,0.1,0,0.2,0
		c1.4-0.3,2.8-0.5,4.2-0.5c0,0,0,0,0,0l0,0c0.5,0,0.9-0.5,0.9-1C29.4,19.6,29,19.1,28.5,19.1z"/>
	<path class="st0" d="M19.1,21.1c-4.9,3.2-8.5,8.9-9.6,15.4c-0.1,0.6,0.2,1.1,0.8,1.2c0.1,0,0.1,0,0.2,0c0.4,0,0.8-0.3,0.9-0.8
		c1-5.9,4.2-11.1,8.7-14c0.5-0.3,0.6-0.9,0.3-1.4C20.2,20.9,19.6,20.8,19.1,21.1z"/>
</g>
</svg>
