<?xml version="1.0" encoding="utf-8"?>
<!-- Generator: Adobe Illustrator 26.0.3, SVG Export Plug-In . SVG Version: 6.00 Build 0)  -->
<svg version="1.1" id="Слой_1" xmlns="http://www.w3.org/2000/svg" xmlns:xlink="http://www.w3.org/1999/xlink" x="0px" y="0px"
	 viewBox="0 0 32 32" style="enable-background:new 0 0 32 32;" xml:space="preserve">
<style type="text/css">
	.st0{fill:none;stroke:#FFFFFF;stroke-width:4;stroke-linecap:round;stroke-linejoin:round;stroke-miterlimit:5.3333;}
</style>
<path class="st0" d="M12,25.3c-6.7,2-6.7-3.3-9.3-4 M21.3,29.3v-5.2c0.1-1.3-0.4-2.6-1.3-3.5c4.2-0.5,8.6-2.1,8.6-9.3
	c0-1.9-0.7-3.7-2-5c0.6-1.6,0.6-3.4-0.1-5c0,0-1.6-0.5-5.2,2c-3.1-0.8-6.3-0.8-9.3,0c-3.6-2.4-5.2-2-5.2-2c-0.7,1.6-0.7,3.4-0.1,5
	c-1.3,1.4-2,3.2-2,5c0,7.2,4.4,8.8,8.6,9.3c-0.9,0.9-1.3,2.2-1.3,3.4v5.2"/>
</svg>
