<?xml version="1.0" encoding="utf-8"?>
<!-- Generator: Adobe Illustrator 26.0.3, SVG Export Plug-In . SVG Version: 6.00 Build 0)  -->
<svg version="1.1" id="Capa_1" xmlns="http://www.w3.org/2000/svg" xmlns:xlink="http://www.w3.org/1999/xlink" x="0px" y="0px"
	 viewBox="0 0 411.3 411.3" style="enable-background:new 0 0 411.3 411.3;" xml:space="preserve">
<style type="text/css">
	.st0{stroke:#000000;stroke-width:9;stroke-miterlimit:10;}
</style>
<path id="XMLID_443_" class="st0" d="M231.4,107.5c16.6,4,38.4,6.2,61.6,6.2s45.1-2.2,61.6-6.2c5.9-1.4,10.9-3,15.1-4.8v15.5
	c-1.4,1.5-7.5,5.3-23,8.5c-14.8,3.1-33.9,4.8-53.8,4.8c-25.9,0-50.4-2.9-65.6-7.8c-4.1-1.3-8.5,0.9-9.8,5c-1.3,4.1,0.9,8.5,5,9.8
	c16.9,5.5,42.5,8.6,70.4,8.6c23.2,0,45.1-2.2,61.6-6.2c2.1-0.5,4-1,5.9-1.6l-9.4,56.9c-0.7,4.3,2.2,8.3,6.4,9
	c0.4,0.1,0.9,0.1,1.3,0.1c3.8,0,7.1-2.7,7.7-6.5l11.1-67c5.2-3.7,7.8-8,7.8-12.9V85.5c0-9.8-10.1-17-30.8-22
	c-16.6-4-38.4-6.2-61.6-6.2s-45.1,2.2-61.6,6.2c-20.7,5-30.8,12.2-30.8,22S210.7,102.5,231.4,107.5z M239.2,77.8
	c14.8-3.1,33.9-4.8,53.8-4.8c19.8,0,38.9,1.7,53.8,4.8c13.3,2.8,19.6,5.9,22.1,7.7c-2.4,1.8-8.8,4.9-22.1,7.7
	C331.9,96.3,312.8,98,293,98c-19.8,0-38.9-1.7-53.8-4.8c-13.3-2.8-19.6-5.9-22.1-7.7C219.6,83.7,226,80.6,239.2,77.8z M351.7,219.5
	c-0.6-0.2-1.1-0.4-1.5-0.6c-2.7-1-8.2-3.2-12.7,3c-0.3,0.4-0.6,0.8-1.2,1.4c-3.6,3.8-14.9,7.7-29.6,7.7c-18.6,0-29-6-30.2-8.4
	c0.2-0.4,1.1-1.5,3.3-2.8c3-1.7,4.4-5.2,3.6-8.5c-0.8-3.3-3.7-5.8-7.1-6c-8.9-0.6-18-0.9-27.2-0.9c-68.5,0-137.9,16.7-137.9,48.5
	v107.8c0,31.8,69.4,48.5,137.9,48.5s137.9-16.7,137.9-48.5V253C387.1,235.5,364.9,224.5,351.7,219.5z M371.5,360.8
	c0,5.1-8.5,13.8-32.6,21.3c-23.8,7.5-55.7,11.6-89.6,11.6c-34,0-65.8-4.1-89.6-11.6c-24.1-7.5-32.6-16.2-32.6-21.3v-84.1
	c24.3,16.3,73.5,24.8,122.2,24.8c48.7,0,97.9-8.4,122.2-24.8L371.5,360.8L371.5,360.8z M162.4,275.1c3.5-2.3,11.9-5.4,24.3-5.4
	c15,0,24,4.4,25.9,6.7c-1.3,1.5-6.1,4.5-15.7,6C184.3,280.6,172.6,278.1,162.4,275.1z M361.9,264.3c-0.3-4.1-3.7-7.3-7.8-7.3h-2
	c-4.3,0-7.8,3.5-7.8,7.8c0,2.7,1.3,5,3.4,6.4c-2.7,1-5.6,2-8.8,3c-23.8,7.5-55.7,11.6-89.6,11.6c-8,0-16-0.2-23.7-0.7
	c1.9-2.6,2.9-5.6,2.9-8.8c0-14.7-21-22.3-41.7-22.3c-17.2,0-34.6,5.3-40,15.5C132.4,263.3,127,257,127,253c0-3.7,4.5-9.3,16.2-14.9
	c0.4,3.9,3.7,6.9,7.8,6.9h2c4.3,0,7.8-3.5,7.8-7.8c0-2-0.7-3.8-2-5.2c0.3-0.1,0.6-0.2,0.9-0.3c23.8-7.5,55.7-11.6,89.6-11.6
	c4,0,7.9,0.1,11.9,0.2c-0.1,0.9-0.2,1.7-0.2,2.4c0,15.8,23.1,24.1,45.8,24.1c17.6,0,33-4.7,40.5-12.2c14.1,5.5,24.2,13.2,24.2,18.4
	C371.5,255.9,368.7,259.9,361.9,264.3z M234.3,235.7c0,4.3-3.5,7.8-7.8,7.8h-2c-4.3,0-7.8-3.5-7.8-7.8c0-4.3,3.5-7.8,7.8-7.8h2
	C230.8,227.9,234.3,231.4,234.3,235.7z M278.2,267c0,4.3-3.5,7.8-7.8,7.8h-2c-4.3,0-7.8-3.5-7.8-7.8c0-4.3,3.5-7.8,7.8-7.8h2
	C274.7,259.1,278.2,262.6,278.2,267z M154.2,189v-32.5c0-13.1-1.7-22.7-6-33.4c-1.6-4,0.4-8.6,4.4-10.2c4-1.6,8.6,0.4,10.2,4.4
	c5,12.5,7.1,24.2,7.1,39.2V189c0,4.3-3.5,7.8-7.8,7.8C157.7,196.8,154.2,193.3,154.2,189z M90.5,368.7c-17.6,0-31.9-13.5-31.9-30.1
	V153.8c0-22.7,5.5-33.7,14.7-51.9c0.5-1,1-2,1.5-3.1h95.4c0.5,1.1,1,2.1,1.5,3.1c9.1,18.2,14.7,29.2,14.7,51.9v27.9
	c0,4.3,3.5,7.8,7.8,7.8c4.3,0,7.8-3.5,7.8-7.8v-27.9c0-26.4-6.9-40-16.3-58.9c-1.2-2.3-2.4-4.7-3.6-7.2c0-0.1-0.1-0.2-0.1-0.3
	c-3.7-7.4-7.6-15.8-11.9-26.4l0-2.3c3.5-3.9,5.6-9,5.6-14.6v-15c0-12-9.8-21.8-21.8-21.8H91c-12,0-21.8,9.8-21.8,21.8v12.3
	l-20.6-8.5c-4-1.6-8.6,0.3-10.2,4.3s0.3,8.6,4.3,10.2l22.9,9.4l-35.4,22c-3.7,2.3-4.8,7.1-2.5,10.8c2.3,3.7,7.1,4.8,10.8,2.5
	L70,72.4c-2.5,5.6-4.8,10.5-7.1,15c0,0.1-0.1,0.2-0.1,0.2c-1.2,2.5-2.4,4.9-3.6,7.2c-9.5,18.9-16.3,32.5-16.3,58.9v184.9
	c0,25.2,21.3,45.8,47.6,45.8c4.3,0,7.8-3.5,7.8-7.8S94.8,368.7,90.5,368.7z M84.9,29.1c0-3.4,2.8-6.2,6.2-6.2h62.8
	c3.4,0,6.2,2.8,6.2,6.2v15c0,1.9-0.9,3.6-2.2,4.8c-0.2,0.1-0.3,0.2-0.5,0.4c-1,0.7-2.2,1.1-3.5,1.1H91c-1.3,0-2.5-0.4-3.4-1
	c-0.2-0.1-0.3-0.3-0.5-0.4c-1.4-1.1-2.2-2.8-2.2-4.7C84.9,44.1,84.9,29.1,84.9,29.1z M89.7,65.9c0.4,0,0.9,0,1.3,0h62.8
	c0.4,0,0.9,0,1.3,0c2.5,6.4,5,12.1,7.4,17.2H82.3C84.7,78,87.2,72.3,89.7,65.9z"/>
</svg>
